{
	"asset":{
		"version":"2.0",
		"generator":"Blender Foundation Blender (stable FBX IO) 4.0.2"
	},
	"scenes":[{
		"nodes":[0]
	}],
	"nodes":[{
		"name":"sides_accordion-door",
		"translation":[0.0,
		0.0,
		0.0],
		"rotation":[-0.5000000596046448,
		0.4999999403953552,
		0.4999999403953552,
		0.5000000596046448],
		"children":[1],
		"scale":[99.99999237060547,
		99.99999237060547,
		100.0]
	},
	{
		"name":"Sides_accordion-door-003",
		"translation":[0.00008375308971153572,
		0.007811847608536482,
		0.8512935638427734],
		"rotation":[0.6632192134857178,
		0.245235413312912,
		0.6632189750671387,
		-0.24523548781871797],
		"children":[2,
		3,
		4],
		"scale":[0.9999999403953552,
		0.9999999403953552,
		1.0]
	},
	{
		"name":"Sides_accordion-door-003-Glass",
		"mesh":0,
		"translation":[0.0,
		0.0,
		0.0],
		"rotation":[-1.6081226229577292e-16,
		1.2246468525851679e-16,
		-1.2246468525851679e-16,
		-1.0],
		"scale":[1.0,
		1.0,
		1.0]
	},
	{
		"name":"Sides_accordion-door-003-Metal 002",
		"mesh":1
	},
	{
		"name":"Sides_accordion-door-002",
		"translation":[0.000017468470105086454,
		-0.008356332778930664,
		0.8577633500099182],
		"rotation":[0.5032486915588379,
		-1.1331810156889333e-8,
		-6.1650231586440899e-9,
		0.8641416430473328],
		"children":[5,
		6,
		7],
		"scale":[1.0000001192092896,
		1.0000001192092896,
		1.0000001192092896]
	},
	{
		"name":"Sides_accordion-door-002-Glass",
		"mesh":2
	},
	{
		"name":"Sides_accordion-door-002-Metal 002",
		"mesh":3
	},
	{
		"name":"Sides_accordion-door-001",
		"translation":[0.00008372517913812771,
		0.0078117735683918,
		0.8512936234474182],
		"rotation":[0.5060340762138367,
		1.1570093327861742e-8,
		-5.111269185675837e-10,
		-0.8625134825706482],
		"children":[8,
		9,
		10],
		"scale":[1.0,
		1.000000238418579,
		1.0]
	},
	{
		"name":"Sides_accordion-door-001-Glass",
		"mesh":4
	},
	{
		"name":"Sides_accordion-door-001-Metal 002",
		"mesh":5
	},
	{
		"name":"Sides_accordion-door-handle",
		"mesh":6,
		"translation":[-0.21018773317337037,
		0.04938030242919922,
		0.808533787727356],
		"rotation":[0.6830126047134399,
		-0.18301288783550263,
		0.6830126643180847,
		-0.18301290273666383],
		"scale":[1.0,
		1.0000001192092896,
		1.0]
	}],
	"meshes":[{
		"name":"Sides_accordion-door-003-Glass",
		"primitives":[{
			"attributes":{
				"POSITION":7,
				"NORMAL":8,
				"TEXCOORD_0":9
			},
			"indices":6,
			"material":0
		}]
	},
	{
		"name":"Sides_accordion-door-003-Metal 002",
		"primitives":[{
			"attributes":{
				"POSITION":17,
				"NORMAL":18,
				"TEXCOORD_0":19
			},
			"indices":16,
			"material":1
		}]
	},
	{
		"name":"Sides_accordion-door-002-Glass",
		"primitives":[{
			"attributes":{
				"POSITION":21,
				"NORMAL":22,
				"TEXCOORD_0":23
			},
			"indices":20,
			"material":0
		}]
	},
	{
		"name":"Sides_accordion-door-002-Metal 002",
		"primitives":[{
			"attributes":{
				"POSITION":25,
				"NORMAL":26,
				"TEXCOORD_0":27
			},
			"indices":24,
			"material":1
		}]
	},
	{
		"name":"Sides_accordion-door-001-Glass",
		"primitives":[{
			"attributes":{
				"POSITION":29,
				"NORMAL":30,
				"TEXCOORD_0":31
			},
			"indices":28,
			"material":0
		}]
	},
	{
		"name":"Sides_accordion-door-001-Metal 002",
		"primitives":[{
			"attributes":{
				"POSITION":33,
				"NORMAL":34,
				"TEXCOORD_0":35
			},
			"indices":32,
			"material":1
		}]
	},
	{
		"name":"Sides_accordion-door-handle",
		"primitives":[{
			"attributes":{
				"POSITION":37,
				"NORMAL":38,
				"TEXCOORD_0":39
			},
			"indices":36,
			"material":2
		}]
	}],
	"accessors":[{
		"bufferView":0,
		"type":"SCALAR",
		"componentType":5126,
		"max":[1.0416666269302369],
		"count":25,
		"byteOffset":0,
		"min":[0.0]
	},
	{
		"bufferView":0,
		"type":"VEC3",
		"componentType":5126,
		"max":[0.00008376075129490346,
		0.0078118592500686649,
		0.8512936234474182],
		"count":25,
		"byteOffset":100,
		"min":[0.00008373139280593023,
		0.007811843417584896,
		0.8512935638427734]
	},
	{
		"bufferView":1,
		"type":"SCALAR",
		"componentType":5126,
		"max":[1.0416666269302369],
		"count":25,
		"byteOffset":0,
		"min":[0.0]
	},
	{
		"bufferView":1,
		"type":"VEC4",
		"componentType":5126,
		"max":[0.695752739906311,
		0.6123723387718201,
		0.6957525014877319,
		-0.1262073814868927],
		"count":25,
		"byteOffset":100,
		"min":[0.35355344414711,
		0.12620733678340913,
		0.35355332493782046,
		-0.6123725175857544]
	},
	{
		"bufferView":2,
		"type":"SCALAR",
		"componentType":5126,
		"max":[1.0416666269302369],
		"count":25,
		"byteOffset":0,
		"min":[0.0]
	},
	{
		"bufferView":2,
		"type":"VEC3",
		"componentType":5126,
		"max":[2.0,
		2.0,
		2.0],
		"count":25,
		"byteOffset":100,
		"min":[1.9999998807907105,
		1.9999998807907105,
		1.9999998807907105]
	},
	{
		"bufferView":3,
		"type":"SCALAR",
		"componentType":5123,
		"max":[11],
		"count":12,
		"byteOffset":0,
		"min":[0]
	},
	{
		"bufferView":4,
		"type":"VEC3",
		"componentType":5126,
		"max":[1.232320785522461,
		0.011927240528166294,
		0.7995038032531738],
		"count":12,
		"byteOffset":0,
		"min":[-1.2322858572006226,
		-0.011852136813104153,
		0.043878354132175449]
	},
	{
		"bufferView":4,
		"type":"VEC3",
		"componentType":5126,
		"max":[0.0,
		1.0,
		0.0],
		"count":12,
		"byteOffset":12,
		"min":[0.0,
		-1.0,
		0.0]
	},
	{
		"bufferView":4,
		"type":"VEC2",
		"componentType":5126,
		"max":[0.6075544953346252,
		0.735461950302124],
		"count":12,
		"byteOffset":24,
		"min":[0.3924456536769867,
		0.014537930488586426]
	},
	{
		"bufferView":5,
		"type":"SCALAR",
		"componentType":5126,
		"max":[1.0416666269302369],
		"count":25,
		"byteOffset":0,
		"min":[0.0]
	},
	{
		"bufferView":5,
		"type":"VEC3",
		"componentType":5126,
		"max":[0.00008376075129490346,
		0.0078118592500686649,
		0.8512936234474182],
		"count":25,
		"byteOffset":100,
		"min":[0.00008373139280593023,
		0.007811843417584896,
		0.8512935638427734]
	},
	{
		"bufferView":6,
		"type":"SCALAR",
		"componentType":5126,
		"max":[1.0416666269302369],
		"count":25,
		"byteOffset":0,
		"min":[0.0]
	},
	{
		"bufferView":6,
		"type":"VEC4",
		"componentType":5126,
		"max":[0.695752739906311,
		0.6123723387718201,
		0.6957525014877319,
		-0.1262073814868927],
		"count":25,
		"byteOffset":100,
		"min":[0.35355344414711,
		0.12620733678340913,
		0.35355332493782046,
		-0.6123725175857544]
	},
	{
		"bufferView":7,
		"type":"SCALAR",
		"componentType":5126,
		"max":[1.0416666269302369],
		"count":25,
		"byteOffset":0,
		"min":[0.0]
	},
	{
		"bufferView":7,
		"type":"VEC3",
		"componentType":5126,
		"max":[2.0,
		2.0,
		2.0],
		"count":25,
		"byteOffset":100,
		"min":[1.9999998807907105,
		1.9999998807907105,
		1.9999998807907105]
	},
	{
		"bufferView":8,
		"type":"SCALAR",
		"componentType":5123,
		"max":[365],
		"count":366,
		"byteOffset":0,
		"min":[0]
	},
	{
		"bufferView":9,
		"type":"VEC3",
		"componentType":5126,
		"max":[1.2760341167449952,
		0.01883057691156864,
		0.8430496454238892],
		"count":366,
		"byteOffset":0,
		"min":[-1.2759991884231568,
		-0.018755167722702028,
		0.0001650036865612492]
	},
	{
		"bufferView":9,
		"type":"VEC3",
		"componentType":5126,
		"max":[0.9478813409805298,
		0.9719362258911133,
		0.8944334387779236],
		"count":366,
		"byteOffset":12,
		"min":[-0.9548465609550476,
		-0.9722514152526856,
		-0.9230626225471497]
	},
	{
		"bufferView":9,
		"type":"VEC2",
		"componentType":5126,
		"max":[0.875,
		1.0],
		"count":366,
		"byteOffset":24,
		"min":[0.12518735229969026,
		0.00041663646697998047]
	},
	{
		"bufferView":10,
		"type":"SCALAR",
		"componentType":5123,
		"max":[11],
		"count":12,
		"byteOffset":0,
		"min":[0]
	},
	{
		"bufferView":11,
		"type":"VEC3",
		"componentType":5126,
		"max":[1.2323033809661866,
		0.01181713491678238,
		0.7931787371635437],
		"count":12,
		"byteOffset":0,
		"min":[-1.2323033809661866,
		-0.011962391436100006,
		0.04355763643980026]
	},
	{
		"bufferView":11,
		"type":"VEC3",
		"componentType":5126,
		"max":[0.0,
		1.0,
		0.0],
		"count":12,
		"byteOffset":12,
		"min":[0.0,
		-1.0,
		0.0]
	},
	{
		"bufferView":11,
		"type":"VEC2",
		"componentType":5126,
		"max":[0.6075544953346252,
		0.735461950302124],
		"count":12,
		"byteOffset":24,
		"min":[0.3924456536769867,
		0.014537930488586426]
	},
	{
		"bufferView":12,
		"type":"SCALAR",
		"componentType":5123,
		"max":[365],
		"count":366,
		"byteOffset":0,
		"min":[0]
	},
	{
		"bufferView":13,
		"type":"VEC3",
		"componentType":5126,
		"max":[1.2760167121887208,
		0.018720200285315515,
		0.8367250561714172],
		"count":366,
		"byteOffset":0,
		"min":[-1.2760167121887208,
		-0.018865376710891725,
		0.000011561290193640162]
	},
	{
		"bufferView":13,
		"type":"VEC3",
		"componentType":5126,
		"max":[0.9582720398902893,
		0.9719362258911133,
		0.8944334387779236],
		"count":366,
		"byteOffset":12,
		"min":[-0.9378616213798523,
		-0.9719362258911133,
		-0.9230188131332398]
	},
	{
		"bufferView":13,
		"type":"VEC2",
		"componentType":5126,
		"max":[0.8749028444290161,
		1.0],
		"count":366,
		"byteOffset":24,
		"min":[0.12518735229969026,
		0.00041663646697998047]
	},
	{
		"bufferView":14,
		"type":"SCALAR",
		"componentType":5123,
		"max":[11],
		"count":12,
		"byteOffset":0,
		"min":[0]
	},
	{
		"bufferView":15,
		"type":"VEC3",
		"componentType":5126,
		"max":[1.2322196960449219,
		0.011962375603616238,
		0.7939535975456238],
		"count":12,
		"byteOffset":0,
		"min":[-1.2323869466781617,
		-0.011817149817943573,
		0.04433222860097885]
	},
	{
		"bufferView":15,
		"type":"VEC3",
		"componentType":5126,
		"max":[0.0,
		1.0,
		0.0],
		"count":12,
		"byteOffset":12,
		"min":[0.0,
		-1.0,
		0.0]
	},
	{
		"bufferView":15,
		"type":"VEC2",
		"componentType":5126,
		"max":[0.6075544953346252,
		0.735461950302124],
		"count":12,
		"byteOffset":24,
		"min":[0.3924456536769867,
		0.014537930488586426]
	},
	{
		"bufferView":16,
		"type":"SCALAR",
		"componentType":5123,
		"max":[365],
		"count":366,
		"byteOffset":0,
		"min":[0]
	},
	{
		"bufferView":17,
		"type":"VEC3",
		"componentType":5126,
		"max":[1.275933027267456,
		0.01886550337076187,
		0.8376667499542236],
		"count":366,
		"byteOffset":0,
		"min":[-1.275933027267456,
		-0.01872008480131626,
		0.0006190406857058406]
	},
	{
		"bufferView":17,
		"type":"VEC3",
		"componentType":5126,
		"max":[0.9456591606140137,
		0.9721794128417969,
		0.934579074382782],
		"count":366,
		"byteOffset":12,
		"min":[-0.900671124458313,
		-0.971933126449585,
		-0.954364538192749]
	},
	{
		"bufferView":17,
		"type":"VEC2",
		"componentType":5126,
		"max":[0.875,
		1.0],
		"count":366,
		"byteOffset":24,
		"min":[0.12518735229969026,
		0.00041663646697998047]
	},
	{
		"bufferView":18,
		"type":"SCALAR",
		"componentType":5123,
		"max":[1334],
		"count":1335,
		"byteOffset":0,
		"min":[0]
	},
	{
		"bufferView":19,
		"type":"VEC3",
		"componentType":5126,
		"max":[0.038263797760009769,
		0.04004073143005371,
		0.2022162675857544],
		"count":1335,
		"byteOffset":0,
		"min":[-0.02177184820175171,
		-0.023205280303955079,
		-0.21992504596710206]
	},
	{
		"bufferView":19,
		"type":"VEC3",
		"componentType":5126,
		"max":[0.9966703653335571,
		0.998979926109314,
		0.994543731212616],
		"count":1335,
		"byteOffset":12,
		"min":[-0.9977210164070129,
		-0.997714638710022,
		-0.9941892027854919]
	},
	{
		"bufferView":19,
		"type":"VEC2",
		"componentType":5126,
		"max":[0.913485586643219,
		1.0],
		"count":1335,
		"byteOffset":24,
		"min":[-7.357812581432199e-9,
		0.0]
	}],
	"bufferViews":[{
		"buffer":0,
		"byteOffset":0,
		"byteLength":400
	},
	{
		"buffer":0,
		"byteOffset":400,
		"byteLength":500
	},
	{
		"buffer":0,
		"byteOffset":900,
		"byteLength":400
	},
	{
		"buffer":1,
		"byteOffset":0,
		"byteLength":24,
		"target":34963
	},
	{
		"buffer":1,
		"byteOffset":24,
		"byteLength":384,
		"target":34962,
		"byteStride":32
	},
	{
		"buffer":2,
		"byteOffset":0,
		"byteLength":400
	},
	{
		"buffer":2,
		"byteOffset":400,
		"byteLength":500
	},
	{
		"buffer":2,
		"byteOffset":900,
		"byteLength":400
	},
	{
		"buffer":3,
		"byteOffset":0,
		"byteLength":732,
		"target":34963
	},
	{
		"buffer":3,
		"byteOffset":732,
		"byteLength":11712,
		"target":34962,
		"byteStride":32
	},
	{
		"buffer":4,
		"byteOffset":0,
		"byteLength":24,
		"target":34963
	},
	{
		"buffer":4,
		"byteOffset":24,
		"byteLength":384,
		"target":34962,
		"byteStride":32
	},
	{
		"buffer":5,
		"byteOffset":0,
		"byteLength":732,
		"target":34963
	},
	{
		"buffer":5,
		"byteOffset":732,
		"byteLength":11712,
		"target":34962,
		"byteStride":32
	},
	{
		"buffer":6,
		"byteOffset":0,
		"byteLength":24,
		"target":34963
	},
	{
		"buffer":6,
		"byteOffset":24,
		"byteLength":384,
		"target":34962,
		"byteStride":32
	},
	{
		"buffer":7,
		"byteOffset":0,
		"byteLength":732,
		"target":34963
	},
	{
		"buffer":7,
		"byteOffset":732,
		"byteLength":11712,
		"target":34962,
		"byteStride":32
	},
	{
		"buffer":8,
		"byteOffset":0,
		"byteLength":2670,
		"target":34963
	},
	{
		"buffer":8,
		"byteOffset":2672,
		"byteLength":42720,
		"target":34962,
		"byteStride":32
	}],
	"buffers":[{
		"uri":"data:application/octet-stream;base64,",
		"byteLength":1300
	},
	{
		"uri":"data:application/octet-stream;base64,",
		"byteLength":408
	},
	{
		"uri":"data:application/octet-stream;base64,",
		"byteLength":1300
	},
	{
		"uri":"data:application/octet-stream;base64,",
		"byteLength":12444
	},
	{
		"uri":"data:application/octet-stream;base64,",
		"byteLength":408
	},
	{
		"uri":"data:application/octet-stream;base64,",
		"byteLength":12444
	},
	{
		"uri":"data:application/octet-stream;base64,",
		"byteLength":408
	},
	{
		"uri":"data:application/octet-stream;base64,",
		"byteLength":12444
	},
	{
		"uri":"data:application/octet-stream;base64,",
		"byteLength":45392
	}],
	"materials":[{
		"pbrMetallicRoughness":{
			"baseColorFactor":[0.49102023243904116,
			0.4910203218460083,
			0.4910207688808441,
			1.0],
			"metallicFactor":0.0,
			"roughnessFactor":0.3356143810225276
		},
		"emissiveFactor":[0.0,
		0.0,
		0.0],
		"alphaMode":"OPAQUE",
		"doubleSided":false,
		"name":"Glass"
	},
	{
		"pbrMetallicRoughness":{
			"baseColorFactor":[0.023968737572431566,
			0.023968737572431566,
			0.023968737572431566,
			1.0],
			"metallicFactor":0.0,
			"roughnessFactor":0.4830075027221463
		},
		"emissiveFactor":[0.0,
		0.0,
		0.0],
		"alphaMode":"OPAQUE",
		"doubleSided":false,
		"name":"Metal 002"
	},
	{
		"pbrMetallicRoughness":{
			"baseColorFactor":[0.0,
			0.0,
			0.0,
			1.0],
			"metallicFactor":0.0,
			"roughnessFactor":0.9999999312069479
		},
		"emissiveFactor":[0.0,
		0.0,
		0.0],
		"alphaMode":"OPAQUE",
		"doubleSided":false,
		"name":"Black Plastic"
	}],
	"animations":[{
		"samplers":[{
			"input":0,
			"interpolation":"LINEAR",
			"output":1
		},
		{
			"input":2,
			"interpolation":"LINEAR",
			"output":3
		},
		{
			"input":4,
			"interpolation":"LINEAR",
			"output":5
		},
		{
			"input":10,
			"interpolation":"LINEAR",
			"output":11
		},
		{
			"input":12,
			"interpolation":"LINEAR",
			"output":13
		},
		{
			"input":14,
			"interpolation":"LINEAR",
			"output":15
		}],
		"channels":[{
			"sampler":0,
			"target":{
				"node":1,
				"path":"translation"
			}
		},
		{
			"sampler":1,
			"target":{
				"node":1,
				"path":"rotation"
			}
		},
		{
			"sampler":2,
			"target":{
				"node":1,
				"path":"scale"
			}
		},
		{
			"sampler":3,
			"target":{
				"node":2,
				"path":"translation"
			}
		},
		{
			"sampler":4,
			"target":{
				"node":2,
				"path":"rotation"
			}
		},
		{
			"sampler":5,
			"target":{
				"node":2,
				"path":"scale"
			}
		}]
	}]
}